# xmcd CD database file generated by OrangeCD 6.3
#
# Track frame offsets:
#	150
#	15895
#	29050
#	48765
#	66570
#	83797
#	101650
#	121457
#	136845
#	155845
#	170422
#	188160
#
# Disc length: 2719 seconds
#
# Revision: 2
# Processed by: cddbd v1.5.2PL0 Copyright (c) Steve Scherf et al.
# Submitted via: OrangeCD 6.3
#
DISCID=9e0a9d0c
DTITLE=Bekka and Billy - Bekka and Billy
DYEAR=1997
DGENRE=Country
TTITLE0=Patient Heart
TTITLE1=Soul Searchin'
TTITLE2=True Blue Love
TTITLE3=Deal With It
TTITLE4=Better Days
TTITLE5=God Knows I Love You
TTITLE6=Through The Walls
TTITLE7=Heart To Call Home
TTITLE8=Born To Be Loved By You
TTITLE9=Old Hickory Lake
TTITLE10=Made For Each Other
TTITLE11=And Then Some
EXTD=
EXTT0=
EXTT1=
EXTT2=
EXTT3=
EXTT4=
EXTT5=
EXTT6=
EXTT7=
EXTT8=
EXTT9=
EXTT10=
EXTT11=
PLAYORDER=
